<svg id="Layer_1" data-name="Layer 1" xmlns="http://www.w3.org/2000/svg" viewBox="0 0 4180.28 1000"><defs><style>.cls-1{fill:none;stroke:#161616;stroke-miterlimit:10;stroke-width:30px;}.cls-2{fill:#161616;}</style></defs><title>Boreal Director</title><polygon class="cls-1" points="607.63 50 219.08 274.33 219.08 722.98 607.63 947.31 996.17 722.98 996.17 274.33 607.63 50"/><path class="cls-2" d="M834.07,818.26c-6.3,2.77-12.59,5.54-17.42,10.66l18.78-10.84A3.78,3.78,0,0,0,834.07,818.26Z"/><path class="cls-2" d="M218.38,725.67,606.93,950,812.11,831.54c-4.31-.47-8.81.16-13.29-1.1.44-.87.23-1.53.67-2.4a103.3,103.3,0,0,0,18.1-24.75l1.31-.43c1.1-1.08,2-2.83.25-3.71-1.3-1.76-1.94-3.73-4.57-2.88a28.82,28.82,0,0,0-7,3c-1.75,1.3-3.51,2.59-5.92,4.1-1.32.43-4.81.84-4.83,3,.2,2.84-2.65,3-3.75,4.12-2.85,2.38-5.94,6.29-10.5,3.42a30.3,30.3,0,0,0,1.79-5.66c.23-1.53-.2-2.85-2.15-4.39-2.4-.67-4.14-1.56-6.13,1.26s-4.6,1.5-7.21.17c-1.74-.89-3.26-1.12-2.38-2.86,1.12-3.27,3.09-3.91,5.93-4.1.66-.22.66-.22,1.53.23a38.69,38.69,0,0,1,8.73.06c5.45,1.14,7.21-.16,9.21-5.17.23-1.53.25-3.71,1.14-5.45a3.87,3.87,0,0,1,3.72-1.94c7.43.5,16.14,2.75,23.17-2.44.44-.87,2-.64,2.63-.85,4.58.68,5.47-1.06,5.06-4.55s1.34-4.8,5.28-6.08c4.16-.62,8.54-2.77,12.27-4.71,2.63-.85,3.73-1.94,3.53-4.78,0-2.18-2.38-2.85-4.56-2.87-7.64-1.15-15.5-.77-22.71-.61-2.19,0-5.24-.48-6.78,1.48-.45.87-1.76,1.3-2.19,0,0-2.18-1.74-.88-2.39-.67a132.22,132.22,0,0,1-23,3.1c-6.55-.05-6.34.61-4.76-5.71a3.6,3.6,0,0,1,.46-3.06c.23-1.53,0-2.18-.85-2.63-3.71-.24-3.25-3.3-4.76-5.71a10.25,10.25,0,0,0-9.79-5.53c-5,.18-10.28,1.88-16.17,1.62-3.71-.25-7.21.16-10.51,3.41-4.4,4.34-11.82,3.85-14.63-.32-1.08-1.1-1.3-1.76-.41-3.5a2.52,2.52,0,0,1,3.71.24,3.55,3.55,0,0,0,3.05.46c1.1-1.08.68-2.39.25-3.71-.85-2.62-3.23-5.48-2.12-8.75,3.06.46,6.11.92,9.18-.8,2.63-.85,5.67,1.79,8.29.94,3.29-1.07,6.13-1.27,8.54-2.78,3.29-1.07,2.43-3.69,3.32-5.43,0-2.19-1.73-3.07-3.47-4a44,44,0,0,0-10.9-2.27c-3-.46-4.14-1.56-4.78-3.53-1.06-3.28-2.57-5.69-7-3.54-1.31.42-3-.46-4.13-1.56-1.94-3.73-5-4.19-8.71-4.44-5,.18-9.6-.51-15.51,1.41-2.63.86-5.7,2.58-9.62,1.68,1.77-3.48.92-6.11,1.38-9.17.23-1.52-.41-3.49.9-3.92,3.94-1.28,4.4-4.33,5.52-7.6.23-1.53,2.2-2.17,3.3-3.25l7.22-2.35c2.42-1.51,5.7-2.58,6.16-5.63.25-3.71-1.71-5.25-4.76-5.71,3.32-5.44,7.93-9.12,11.67-13.24,2.2-2.16,1.56-4.13-.39-5.68-1.08-1.1-6.11-.92-2.36-5,1.31-.43-.43-1.31-.64-2L718,637.43a4.41,4.41,0,0,1-1.28-3.94c.45-.87,1.33-2.61,2.86-2.38,6.32,1.58,10.94-2.1,16.4-3.15a56.72,56.72,0,0,0,17.31-7.08c1.76-1.29,2.64-3,2-5,0-2.18-1.51-2.41-3.69-2.43-3.27-1.11-5.9-.26-8.95-.72-9.39.15-17.65-5.16-26.84-2.17l-.66.22c-3.69-2.43-6.55,0-10.07,2.54-1.06-3.28,0-4.37,1.58-6.32,4.4-4.34,2.25-8.72-3.2-9.85a2.55,2.55,0,0,1-2.18,0c-3.5.41-4.58-.69-3.68-4.61,2.22-4.35-.61-6.34-6.08-5.29-6.12,1.26-12.67,1.21-18.35,1.61-.66.21-2.19,0-1.74-.89-.43-1.31.88-1.74,1.54-2a2.51,2.51,0,0,0,2.18,0c6.34-.6,13.12-2.08,18.39-6,5.49-3.24,11.4-5.16,17.31-7.08,7.88-2.56,13.81-6.66,20.39-11,1.1-1.08,1.55-2,1.12-3.27a5.25,5.25,0,0,0-5.65-4c-5.25,1.71-10.26-.3-14.86,1.2-1.75,1.29-4.59,1.49-6.78,1.47-2.63.86-4.58-.69-3.46-3.95.46-3.06-.63-4.16-3.68-4.62-2.18,0-5,.18-6.78,1.48-1.54,2-3.51,2.59-6.36,2.79-2,.64-4.59,1.49-5.27,3.89-.9,3.92-3.92-.9-5.46,1-.45.87-1.76,1.3-1.55,2-.88,1.74-2.2,2.16-4,3.46a19.45,19.45,0,0,0-9,5.83c-2.2,2.16-5.7,2.57-7.87.37-1.08-1.1-1.51-2.41-3.25-3.3-2.41,1.51-5,2.37-7.45,3.88s-5,2.36-6.8,3.66-2.64,3-4.83,3c-.87-.44-1.75,1.3-2.84.2a3.65,3.65,0,0,1,.68-2.4c4.4-4.33,6.63-10.87,10.82-15.86,3.08-3.91,4.43-8.7,8.39-12.17,1.1-1.08,1.33-2.61,3.28-1.06,1.08,1.1,2.63-.86,3.94-1.28,3.5-.41-.85-2.63.91-3.93,3.67,4.62,9.37,2,13.52,1.42,3.5-.41,4-3.47,3.11-6.1,0-2.18-2-1.54-4.14-1.56-.66.22-.66.22-2.18,0,.67-2.4,2.87-4.57,3.54-7,.45-.87,1.33-2.61-.41-3.5-3.69-2.43-7.37-7.05-14.15-5.57,4.17-2.81,3.53-4.78.69-4.58-4.58-.69-5.43-3.32-6.29-5.94-.64-2-1.28-3.94-2.36-5-2.83-2-2.58-5.7-5.85-6.82-2.39-.67-5,.18-5-4.19.45-.87-.87-.44-1.52-.23a6.29,6.29,0,0,0-4,3.47c-3.09,3.91-5.06,4.55-8.75,2.12a16.43,16.43,0,0,1-6.29-5.95,3.29,3.29,0,0,1,.9-3.92c1.1-1.09,2.2-2.17,4.81-.84,1.53.23,3.27,1.12,4.8,1.35a134.69,134.69,0,0,1,18.57-.95c6.55.05,13.12-2.09,20.11-2.91.05-6.55-.16-7.21-6.27-8.13-3-.46-6.11-.92-8.72-2.25-3.48-1.77-7-3.54-11.34-1.39-1.32.42-2.63.85-3.06-.46-1.94-3.73-5.22-2.66-8.27-3.12,5.5-5.42,11.21-10.18,16.93-14.94-1.07-3.29-2.79-6.36-7.39-4.86-2,.64-3.06-.46-3.91-3.09-.62-4.15-3-4.83-7.62-3.33a25.2,25.2,0,0,0-8.77,4.3,53.83,53.83,0,0,1-9.42,4.51q-4.92,1.6-5.22-2.66c-1.05-5.47-4.32-6.58-8.9-7.27-8.5-1.6-16.14-2.75-24.2-5.21l7.24-4.53c4.17-2.81,8.34-5.62,13.17-8.64a2.52,2.52,0,0,0,.25-3.71c-.43-1.31.24-3.71-1.94-3.72-8.08-.28-16.16-.56-23.83,2.65,1.56-4.13,3.12-8.27-1-12-2.16-2.2-1.28-4,1.79-5.67l7.24-4.53c2.42-1.51,1.33-2.61.69-4.58.23-1.53-.85-2.63-2.82-2-3.94,1.28-8.73-.06-13.12,2.09-3.94,1.28-8.75,2.11-12.69,3.39-5.7,2.58-11.82,3.85-16.44,7.52-1.75,1.3-5,2.37-6.32-1.57,0-2.19-1.51-2.42-3.91-3.09s-5.45-1.13-8.27-3.12c2.2-2.17,4.4-4.33,5.93-4.11,8.73.07,15.1-4.9,23-7.46,2.63-.86,6.79-1.48,7.25-4.54,1.34-4.79,4.86-7.38,8.37-10,2.41-1.51,2.43-3.69,1.79-5.66-.41-3.5.25-3.71,4.19-5,2.62-.86,5.68-.4,7.88-2.56s4.83-3,8.11-4.09a13.07,13.07,0,0,0,4.83-3c2.2-2.17.7-6.77-1.27-6.13-3.72,1.94-6.32-1.57-9.81-1.16-6.13,1.26-13.11-.1-19.89,1.37-2.63.86-4.81.84-5-2,0-4.37-3.23-5.48-6.73-5.07-2.18,0-3.71-.25-5.68.39-3.5.41-7-1.36-7.83-4-.64-2-3.25-3.3-3.45-6.14a13.28,13.28,0,0,0,4.81-.84l2-.64c3.07-1.72,4-3.46,2.24-6.53-1.09-1.1-2.61-1.33-4.14-1.56-3.71-.25-6.76-.71-9.82-1.17-3.27-1.12-2.82-2-1.49-4.6.67-2.39,2.66-5.22,3.31-5.43,2.63-.85,4.6-1.49,3.75-4.12l1.31-.43a5.27,5.27,0,0,0,5.26-1.71c4-3.46,9.44-6.69,10.36-12.8.23-1.53,2.64-3,.47-5.24s-3.92-.9-5.89-.26c-7,3-11.79-.53-17.45-2.32-.86-2.63-4.8-1.35-6.75-2.89a16.39,16.39,0,0,0-7.62-3.33c-7.85-1.81-15.91-4.27-24.22-3-1.31.43-3.94,1.28-4.79-1.34-1.07-3.29-3.48-1.78-6.11-.92-1.53-.23-3.07,1.72-5.25,1.71.23-1.53.67-2.4,1.33-2.62,4.38-2.15,9.21-5.17,14.46-6.87,9.2-3,16.67-9.05,26.08-11.38,2.62-.85,3.3-3.25.92-6.11-1.3-1.76-2.6-3.51-5.23-2.66-2.84.2-6.33.61-9.17.81-4.16.62-9.41,2.33-13.76.11-3.27-1.12-5.9-.26-8.54,2.77s-7.23,2.35-10.51,3.42c-1.31.42-3.05-.46-2.82-2-.86-2.63-.84-4.81-4.78-3.53-.66.21-.87-.44-1.08-1.1,1.33-2.61-1.28-3.94-2.58-5.7-2.17-2.2-3.91-3.08-7.41-2.67-1.31.42-3.05-.46-4.58-.69,1.76-1.3,6.13-1.27,2.66-5.23-1.29-1.75,1.12-3.26,3.09-3.9a9.78,9.78,0,0,1,4.37,0c3.49-.41,6.35-2.79,6.16-5.63.46-3.05,1.77-3.48,4.4-4.33a134.21,134.21,0,0,0,22.33-7.26c2-.64,5.25-1.71,5-4.55.25-3.71-2.8-4.17-5.2-4.84-1.53-.23-2.4-.68-3.71-.25-7.42-.49-15.06-1.64-23.15.26a12.77,12.77,0,0,1-5,.18c-1.52-.23-3.05-.46-3.48-1.77q-1-3,.69-4.58c4.39-2.15,7.69-5.4,11-6.47,5.47-1,9-5.83,13.81-6.67,3.28-1.06,2.43-3.69,2-5,0-2.19-1.51-2.42-3.69-2.43-2.84.19-5.9-.27-8.52.59-2.19,0-5,.18-5.88-2.45-.41-3.5-3-2.64-5-2s-4.15.62-6.12,1.26a7.65,7.65,0,0,1-5.26,1.71,5.68,5.68,0,0,0-5.48,3.23c-1.77,3.48-2.38-2.85-3.71-.24-1.54,2-4.39,2.15-6.57,2.13-1.31.43-2.63.85-3.07,1.72-1.12,3.27-2.86,2.38-5,2.37-2.84.19-3.5.41-5.66-1.79a6.34,6.34,0,0,0-1.85-1.76L218.38,277Z"/><path class="cls-2" d="M1202.6,562.15h110.25q28.8,0,51.53,8.78a92.94,92.94,0,0,1,38.47,27.67q15.75,18.9,24.3,48.6t8.55,72q0,42.31-8.55,72t-24.3,48.6a93,93,0,0,1-38.47,27.68q-22.74,8.78-51.53,8.77H1202.6ZM1312.85,820q54.45,0,54.45-63V681.4q0-63-54.45-63H1267V820Z"/><path class="cls-2" d="M1514.45,611.2q-19.37,0-28.13-8.32t-8.77-22.73v-9.9q0-14.38,8.77-22.72t28.13-8.33q19.33,0,28.12,8.33t8.77,22.72v9.9q0,14.42-8.77,22.73T1514.45,611.2ZM1483,640h63V876.25h-63Z"/><path class="cls-2" d="M1600.84,876.25V640h63v50.4h7.2a101.59,101.59,0,0,1,4.5-19.12,52.44,52.44,0,0,1,8.78-16.2,39.78,39.78,0,0,1,14.17-11q8.55-4,20.25-4H1730v63.9h-16.2q-25.65,0-37.8,7.2t-12.15,27.45v137.7Z"/><path class="cls-2" d="M1856.89,881.65q-48.6,0-77.62-30.82t-29-92.48q0-63,25.43-93.37t74.92-30.38q49.5,0,74.93,30.28T1950.94,758V773.2h-135v14.85q0,19.82,12.15,31.73t33.3,11.92q17.55,0,29.93-7.87T1914,802l32,37.56a102.71,102.71,0,0,1-36.67,30.78Q1887,881.65,1856.89,881.65Zm-6.3-199.8q-34.65,0-34.65,40.17V736.3h69.3V722Q1885.24,681.87,1850.59,681.85Z"/><path class="cls-2" d="M2078.74,881.65q-49.5,0-74.7-30.15t-25.2-93.15q0-63,25.2-93.37t74.7-30.38q35.1,0,56,16t29.92,45.22l-50.85,22.5q-2.25-17.09-10.35-25.42t-24.75-8.33q-34.2,0-34.2,40.5V791.2q0,40.5,34.2,40.5,17.1,0,25.43-8.77t12.37-26.78l49.05,21.6Q2146.24,881.67,2078.74,881.65Z"/><path class="cls-2" d="M2275.83,876.25q-32.4,0-47-14.4T2214.18,816V689.05h-29.7V640h14.4q12.6,0,17.1-5.4t4.5-17.55V576.1h56.7V640h41.4v49h-41.4V827.2h36.9v49Z"/><path class="cls-2" d="M2442.78,881.65q-49.5,0-74.92-30.15t-25.43-93.15q0-63,25.43-93.37t74.92-30.38q49.5,0,74.93,30.38t25.42,93.37q0,63-25.42,93.15T2442.78,881.65Zm0-49.95q34.65,0,34.65-40.5V725.05q0-40.5-34.65-40.5t-34.65,40.5V791.2Q2408.13,831.7,2442.78,831.7Z"/><path class="cls-2" d="M2584.53,876.25V640h63v50.4h7.2a101.59,101.59,0,0,1,4.5-19.12,52.44,52.44,0,0,1,8.78-16.2,39.7,39.7,0,0,1,14.17-11q8.55-4,20.25-4h11.25v63.9h-16.2q-25.65,0-37.8,7.2t-12.15,27.45v137.7Z"/><path class="cls-2" d="M1209.35,68h118.8q35.55,0,54.68,20T1402,148.79q0,18.87-4.5,31.22T1386,199.76a45.26,45.26,0,0,1-15.52,11,49.74,49.74,0,0,1-16.65,4v4.51A58.36,58.36,0,0,1,1372,222.7a50.86,50.86,0,0,1,18.89,11.72q8.79,8.34,14.86,22.09t6.07,34.49q0,43.26-19.8,67.16t-51.75,23.89h-131Zm36,135.45h78.3q19.35,0,29.7-10t10.35-31.46V141.39q0-21.4-10.35-31.45t-29.7-10h-78.3Zm0,146.7h84.15q21.6,0,32.63-11.43t11-35.64V282.42q0-24.21-11-35.64t-32.63-11.43h-84.15Z"/><path class="cls-2" d="M1550.45,387.45a104.45,104.45,0,0,1-37.81-6.75,73.79,73.79,0,0,1-30.14-21.6q-12.62-14.85-19.8-37.8T1455.5,266q0-32.4,7.2-55.35t19.8-37.8a73.79,73.79,0,0,1,30.14-21.6,109.24,109.24,0,0,1,75.61,0,73.79,73.79,0,0,1,30.14,21.6q12.6,14.85,19.81,37.8t7.19,55.35q0,32.4-7.19,55.35t-19.81,37.8a73.79,73.79,0,0,1-30.14,21.6A104.4,104.4,0,0,1,1550.45,387.45Zm0-30.15q27.88,0,43-16.73t15.08-51.11v-47q0-34.38-15.08-51.11t-43-16.73q-27.92,0-43,16.73t-15.08,51.11v47q0,34.38,15.08,51.11T1550.45,357.3Z"/><path class="cls-2" d="M1698,382.05V149.85h34.2v43.2h4.5q5.85-20.25,20-31.73t37.12-11.47h12.6V184.5H1784q-24.3,0-38,10.8t-13.73,32.4V382.05Z"/><path class="cls-2" d="M1925.74,387.45a104.4,104.4,0,0,1-37.8-6.75,73.76,73.76,0,0,1-30.15-21.6q-12.6-14.85-19.8-37.8t-7.2-55.35q0-32.4,7.2-55.35t19.8-37.8a73.76,73.76,0,0,1,30.15-21.6,104.4,104.4,0,0,1,37.8-6.75,99.07,99.07,0,0,1,37.12,6.75,68.22,68.22,0,0,1,28.58,21.6q11.7,14.85,18.22,37.8t6.53,55.35v8.55h-149v14.85q0,34.2,15.52,51.07t43,16.88q23.38,0,38.25-10.13t23.4-30.37l23.4,17.1a94.2,94.2,0,0,1-31.73,38.7Q1958.13,387.45,1925.74,387.45Zm0-214.2q-27.91,0-43.2,17.55t-15.3,51.75v5.85h112.5v-5.85Q1979.74,173.25,1925.74,173.25Z"/><path class="cls-2" d="M2216,382.05q-33.31,0-33.3-33.67v-4.55h-4.5q-5.86,21.36-21.38,32.49t-37.12,11.13q-33.75,0-50.4-17.1T2052.64,320q0-32.4,21.37-51.3t66.83-18.9h41.85V224.1q0-25.65-11.48-37.8T2135,174.15q-20.25,0-32.63,8.77T2081,208.35l-20.25-18.9q9-18.9,28.8-31.73t46.8-12.82q39.59,0,60.07,19.12t20.48,56.48V351.9h23.4v30.15Zm-87.75-24.75a58.42,58.42,0,0,0,21.82-4,57.26,57.26,0,0,0,17.33-10.51A48.64,48.64,0,0,0,2178.64,328a38.74,38.74,0,0,0,4.05-17.23V275.85h-42.75q-27,0-39.38,8.95t-12.37,26v12.53q0,17.46,10.8,25.73T2128.24,357.3Z"/><path class="cls-2" d="M2321.73,382.05q-18.46,0-26.77-8.33T2286.63,347V49.05h34.2V351.9h29.25v30.15Z"/><path class="cls-2" d="M2576.42,387.45q-33.75,0-59-14.18a120.57,120.57,0,0,1-41.85-39.37l26.1-21.6q14.4,21.15,32.4,32.62t42.3,11.48q63.9,0,63.9-59.85,0-24.3-11.7-36.9t-40.5-19.8l-23.4-5.85q-41.4-10.35-61-30.37t-19.58-56.48q0-41.85,26.1-63.23t69.3-21.37q32.85,0,55.13,12.15T2673.62,113l-26.55,18.9q-12.15-18.9-27.67-28.58t-41.18-9.67q-28.8,0-43.87,12.6t-15.08,41q0,22.95,12.38,34.65t39.82,18.45l23.4,5.85q22.05,5.4,37.35,12.82t25,18.23a65,65,0,0,1,14,25.42q4.28,14.64,4.27,34,0,44.55-26.32,67.72T2576.42,387.45Z"/><path class="cls-2" d="M2855.42,149.85h33.3l-91.8,291.6a88,88,0,0,1-5.85,15.07,26.08,26.08,0,0,1-7.88,9.45,29.26,29.26,0,0,1-11.25,4.73,83.06,83.06,0,0,1-16.42,1.35h-25.2V441.9h35.55l13.5-47.25-76.95-244.8h34.2l35.55,117,21.6,85h4.5l21.6-85Z"/><path class="cls-2" d="M2995.37,387.45q-28.8,0-49.28-11.7a106.9,106.9,0,0,1-34.87-32.4l23.85-19.8q12.15,17.1,26.32,26.1t34,9q20.25,0,32.17-10.13t11.93-29q0-15.3-7.65-24.75t-28.35-13.05l-17.55-3.15q-33.75-6.3-50.18-21.15t-16.42-45q0-17.55,5.4-30.38a55,55,0,0,1,15.3-21.14,62.1,62.1,0,0,1,23.62-12.16,111.62,111.62,0,0,1,29.93-3.82q26.08,0,43.87,9.23a90,90,0,0,1,30.83,26.77l-22.05,20.25A75.66,75.66,0,0,0,3026,182q-12.6-8.31-32.4-8.32-41,0-41,37.35,0,17.1,8.77,25T2990,247.5l17.55,3.15q35.54,6.3,50.4,22t14.85,42.75q0,33.75-19.58,52.87T2995.37,387.45Z"/><path class="cls-2" d="M3174.47,382.05q-18.46,0-26.78-8.33T3139.37,347V180h-34.2V149.85h20.25q10.35,0,13.72-5.18t3.38-15.52V86h31.05v63.9h45V180h-45V351.9h42.75v30.15Z"/><path class="cls-2" d="M3348.17,387.45a104.4,104.4,0,0,1-37.8-6.75,73.76,73.76,0,0,1-30.15-21.6q-12.61-14.85-19.8-37.8t-7.2-55.35q0-32.4,7.2-55.35t19.8-37.8a73.76,73.76,0,0,1,30.15-21.6,104.4,104.4,0,0,1,37.8-6.75,99.07,99.07,0,0,1,37.12,6.75,68.22,68.22,0,0,1,28.58,21.6q11.68,14.85,18.22,37.8t6.53,55.35v8.55H3289.67v14.85q0,34.2,15.52,51.07t43,16.88q23.39,0,38.25-10.13t23.4-30.37l23.4,17.1a94.2,94.2,0,0,1-31.73,38.7Q3380.57,387.45,3348.17,387.45Zm0-214.2q-27.91,0-43.2,17.55t-15.3,51.75v5.85h112.5v-5.85Q3402.17,173.25,3348.17,173.25Z"/><path class="cls-2" d="M3491.71,382.05V149.85h34.2v37.8h4.5q6.75-21.6,19.8-32.4t36.9-10.8q21.6,0,36.68,10.57t22.72,32.63h4.5q7.2-21.6,22.5-32.4t40.5-10.8q29.7,0,47.7,21.15t18,65.25v151.2h-34.2v-149q0-27.9-11-42.75t-34-14.85q-20.25,0-34,12.6t-13.73,35.55v158.4h-34.2v-149q0-27.9-11-42.75t-34-14.85q-20.25,0-34,12.6t-13.73,35.55v158.4Z"/><path class="cls-2" d="M3910.21,387.45q-28.8,0-49.28-11.7a106.9,106.9,0,0,1-34.87-32.4l23.85-19.8q12.15,17.1,26.32,26.1t34,9q20.25,0,32.17-10.13t11.93-29q0-15.3-7.65-24.75t-28.35-13.05l-17.55-3.15q-33.75-6.3-50.18-21.15t-16.42-45q0-17.55,5.4-30.38a55,55,0,0,1,15.3-21.14,62.1,62.1,0,0,1,23.62-12.16,111.62,111.62,0,0,1,29.93-3.82q26.09,0,43.87,9.23a90,90,0,0,1,30.83,26.77l-22.05,20.25A75.66,75.66,0,0,0,3940.81,182q-12.6-8.31-32.4-8.32-40.95,0-40.95,37.35,0,17.1,8.77,25t28.58,11.48l17.55,3.15q35.54,6.3,50.4,22t14.85,42.75q0,33.75-19.58,52.87T3910.21,387.45Z"/></svg>