<svg id="Layer_1" data-name="Layer 1" xmlns="http://www.w3.org/2000/svg" viewBox="0 0 500 500"><defs><style>.cls-1,.cls-3{fill:#fff;}.cls-2{fill:#161616;stroke:#fff;}.cls-2,.cls-3{stroke-miterlimit:10;}.cls-3{stroke:#161616;stroke-width:5px;}</style></defs><title>Light_Icon</title><rect class="cls-1" x="-12" width="3693" height="500"/><polygon class="cls-1" points="250 0 33.49 125 33.49 375 250 500 466.51 375 466.51 125 250 0"/><path class="cls-2" d="M22.43,450.84c-1.85-1.21-4.15-1.56-6.45-1.91a2.32,2.32,0,0,1-2.4-1.77A3.38,3.38,0,0,1,15.47,444l2-.64c3.61-.08,6.58-1.05,10.08-.36,2.29.34,5-.18,7.66.06.77.11,1.1,0,1.21-.76.45-.87-.21-.66-.65-.88a1.91,1.91,0,0,1-1.52-1.33c-1.52-1.32-3.16-1.88-4.93-.58-1.21.75-2.84.19-4.38,1.06-1.21.76-1-.78-1.86-1.22s-.32-1-.1-1.43c1-1.41,2.65-1.95,2.77-3.81-.65-.88-1.53-.23-2.3-.34s-1.54.86-1.63-.56c-.33-1-.88-.45-1.1,0-1,1.41-2.2,1.08-3.4.74a46.22,46.22,0,0,0-6.68-.38c-1.42.1-1.41-1-2-1.55-.43-1.32.23-1.53,1.11-2.18a10.72,10.72,0,0,1,3.19-1.4c3.52-1.51,7.35-2,11.09-4,2.09-1.41,5.05-1.27,7.36-3.12,1.64.56,3.18-.3,4.83-.84,1.75-.2.86,1.54,1.18,2.53,1.54-.86.46-2,.9-2.84.88-.65,1.2.34,1.64.56.11.33.44.22.77.11,2.09-1.4,2.85-1.29,3.83.58,1.09,0,.33-1.2,1.32-1.52a2.67,2.67,0,0,0,.76,1.21l.32,1c1.55-2,4.07-2.05,5.94-3,.88-.66,2.07.78,3.17-.31.78-1,1.77-1.3,2.87-2.39a4,4,0,0,0-4.26-.8,24.56,24.56,0,0,1-13.26.67c-2.41-.68-5.15-.15-8,.05-.33.11-1.31.43-1.75.2-3.71-1.34-6.58,1.05-9.66,2.78l-3.63,2.27a2.85,2.85,0,0,1-3.61-1c-1.08-1.11-.31-2.09.57-2.74,1.66-1.63,1.44-2.28,0-3.28-2.51-2.1-5.14-1.24-7.67-.06-2,.64-3.84.52-5.81,1.16-1,.32-1.53-.23-2.08-.78a1.6,1.6,0,0,1,.45-2c.23-.44.89-.65,1.11-1.09,1.1-1.08,2.75-1.62,3.31-3.26.34-1.2,2.64-2,4.18-2.81a2.59,2.59,0,0,0,2-1.74c.45-2,2.87-3.48,5.06-3.47a7.68,7.68,0,0,0,4.95-2.7c1.77-2.39,4.73-3.35,7.37-4.21.66-.22,1.53.23,1.54-.87s-.76-1.21-1.52-1.32c-.66.21-1.1,0-1.76.2-2.3.75-2.29-1.44-2.94-2.32-.54-.55-.32-1,.23-1.53A12.24,12.24,0,0,1,26.86,386c1.87-1,3.3-2.16,3.21-3.59-.65-2-1.17-4.72-3.91-5.28a16.26,16.26,0,0,1-3.6-1c-.55-.55-.77-.11-1.32.43-1.21.76-2.09,1.41-3.3,2.17-1,.32-1.76,1.3-2.85.19-.76-1.21-2.17-2.2-1.18-3.62a4.71,4.71,0,0,0,1-1.42,1.88,1.88,0,0,0,.34-1.2c-.22-.66-.88-.44-1.54-.23-3,1-6.24-.16-9.42.15-1.53-.23-2.51-1-2.28-2.54.13-1.86-1.51-2.42-2.94-2.32-4.05-.14-7-2.46-10.7-3.8-1.2-.34-1.09-1.11-.54-1.65.12-.77.13-1.86,1.33-1.53,1.64.57,2.74-.52,4.27-.29.77.11,1.76-.21,2.63.24,1.43-.1,3.84-.52,4.28-1.39a2.48,2.48,0,0,1,3.52-1.51c2.73.57,5.15-.95,7.34.16l1-.32c.88-.65,2.75-.52,2.75-1.62-.09-1.42-1.74-.89-2.61-1.33a3.69,3.69,0,0,1-1.87-.13c-2.4-.67-4.8-1.35-4-4.52a20.23,20.23,0,0,1,7.89-1.47c1.86.12,2.52-.09,2.65-2a6.2,6.2,0,0,1,1.77-2.4c1.87-1,1.65-1.63.24-2.62a8.13,8.13,0,0,0-2.19-1.12c-.54-.55.34-1.2.46-2-.1-1.43,1.11-2.19,2.64-1.95,2.19,0,4.5-.74,6.46-.28a3.41,3.41,0,0,0,3.08-.64l-.11-.33c-3.29,0-5.8-1-8.64-1.92-2-.46-3.39-.36-4.72,1.16-.55.55-1.54.87-2.09,1.41-1.22,1.85-2.75,1.62-4.17.63-1-.78-1.41-1-2.19,0-1.65,1.63-4,2.38-6.15,3.46q-2.65,1.95-4.6-.69A20,20,0,0,0-.35,334.8c1-4.7,5.75-7,7.75-10.89-.65-.89-1.64-.56-2.73-.57a4.32,4.32,0,0,1-3.35-5.83,3.12,3.12,0,0,1,1.54-.87c3.28,0,6.69-1.81,9.87-2.11l.66-.22a35.44,35.44,0,0,0,11-8.67c.22-.44.77-1,.23-1.54a2.66,2.66,0,0,0-1.76.21,2.61,2.61,0,0,1-1.1,1.09,2.15,2.15,0,0,1-2.52.09c-.44-.23-.32-1-.21-1.76.24-2.62-.74-3.4-3.59-3.2-1.09,0-2.3.75-3.06-.46a1.26,1.26,0,0,0-1.09,0c-1.32.43-1.78,3.49-4.07,2.05C6,304,4.16,303.84,2.83,305.36a3.75,3.75,0,0,1-2.63.86,2.61,2.61,0,0,1-2.84-.9c-.65-.88.23-1.53.67-2.4.55-.55,1.11-1.09.79-2.08-3.5-.68-7.12-.6-10.51-.95a14.42,14.42,0,0,1-3.72-.25c-2-.46-1.41-2.09-1.51-3.52-.43-1.32.67-1.31,1.66-1.63l9.21-1.9c1.42-.1,2.42-1.51,4-1.28.11.33.55-.55.34-1.21.12-1.86,1.23-2.94,2.77-3.81,2.63-.85,4-3.47,6.93-4.44,1.32-.42,2.1-2.5,4.62-2.59-2.29-1.44-2.28-2.54-1.18-3.62l-.21-.66c-4.49-.36-4.57-4-5.43-6.61a2.61,2.61,0,0,0-2.06-1.88A1.63,1.63,0,0,1,3,263.42c1.54-.87,3-2.06,5.17-2,3.83-.52,7.67-1,10.65-4.19-1.53-.24-2.73-.57-3.6-2.11-.43-1.32-1.85-1.22-3.06-.46-3.63,2.27-7.58,3.55-10.67,6.38a18.89,18.89,0,0,1-6.82,3.67c-1.32.43-2.64,1.95-3.85,2.71a2.17,2.17,0,0,1-2.85.19c-.88-.44-1.42-1-.65-2,2.1-2.5,3-5.35,4.44-7.63.45-.88.56-1.64,1.22-1.86,2.2-1.08,2.65-3,3.21-4.68.24-2.63,2.12-4.7,2.69-7.43,1.23-4,1.23-4-3.26-3.31-3.18.31-5.93,1.93-9.32,1.57-3.5-.68-6.69.72-10.19,0-1.53-.23-1.52-1.32-1.84-2.31-.1-1.42,1.1-1.09,1.76-1.3,2-.64,4.06-1,6-2.69.78-1,3-1,4.29-2.49-1.74-.89-4.15-1.56-3.25-4.4,3.29-1.07,6.37-2.8,10-2.89,1.53.24,3.17.8,4.5-.73.44-.87,2.3-.75,3.28,0s2.08.78,3.72.24a4.43,4.43,0,0,1,5,.92c.44.22,1.09,1.1,2.19,1.11-.43-1.32.34-2.3,1.67-3.82a10.44,10.44,0,0,1-5.81.07c-3.28,0-6.56-1.15-9.85-.08a7.33,7.33,0,0,1-2.63-.24c-1.2-.34-1.09-1.1-1.41-2.09.12-.77.78-1,1.43-1.19,2.31-.75,2.53-1.19,1.89-3.17A1.67,1.67,0,0,1-2.5,215a33.66,33.66,0,0,0,2.34-6.23c-1.76,1.3-3.19,2.5-5.37,1.39-.55-.56-1.11,1.08-2.53,1.18-2.74.53-5.37.29-8,1.15-.32.1-.76-.12-1.09,0-1.1,0-1.53-.23-1.85-1.22.11-.77.23-1.53,1.22-1.85,3.4-1.84,6.38-3.9,9.46-5.63.66-.21.88-.65,1-1.41A13.71,13.71,0,0,1-11,198.8c1.65-1.63,2.76-3.81,4.75-5.55.22-.43.77-1,.56-1.63s-1.2-.34-1.64-.56-.66.21-1,.32c-.22.43-12.06,2.1-12.39,2.2-1.86-.12-1.3-1.76-2-2.64,2.43-2.61,6.05-3.79,9.24-5.19,1.64-.53,3.4-.74,4.29-2.48.22-.44.88-.65,1.75-.21,1.31.67,1.33-1.52,2.86-1.29.43.22.44-.88.34-1.2-.22-.66-.65-.89-1-.78a8.89,8.89,0,0,0-5,1.28,6.92,6.92,0,0,1-3.84.52c-1.42.09-2.62-1.34-1.84-2.32,1.65-1.63,1.89-4.26,2.78-6,.67-1.31,1.11-2.18,3-2.06a7.18,7.18,0,0,0,3.52-1.51,17.43,17.43,0,0,1,7.26-4.54c1.32-.43,2.21-2.17,3.64-3.37a.65.65,0,0,0-.32-1c-.54-.55-1.52-1.32-2.4-.67A14.17,14.17,0,0,0-2,161.64c-2.54,2.28-5.61,2.91-8.36,4.53a1.89,1.89,0,0,1-2.4-.67c-.87-.45-.76-1.21-.31-2.09,1.21-1.85,2.33-4,4.09-5.33.77-1,2.31-1.85,2.11-3.6-2,.64-3.95.19-5.81.06-1.53-.23-3.07.64-4.39,1.07-3.18.3-6.35-.49-9.52-.18-.77-.12-1.21-.34-1.42-1a1.78,1.78,0,0,1,.67-2.41,12.76,12.76,0,0,1,3.41-1.83c2.42-.42,4.51-1.83,7-1.92,1.42-.1,3.07-.63,3.52-2.6a5.88,5.88,0,0,1-3.27-1.12c-.88-.45-1.87-.13-1.64-1.66.34-1.2.68-2.4,2.1-2.5,4.28-.3,8.66-.26,12.83-.89a1.17,1.17,0,0,1,.76.12c.65.88,1.19,1.43,2.41.67.55-.54,1.74.89,2.74-.52.77-1,1.75-.21,2.62.23,3,1.23,2.62,1.34,5,.92-1.51-2.42-1-4.06,2.24-5.46.66-.21,2.52-.09,2.31-1.84-.1-1.43-1.74-.89-2.84-.9-2.4-.68-4.49-.36-7.23.16-4.06,1-8.23,1.58-12.39,2.21a5,5,0,0,1-3.61-1c-1.84-2.31-4.26-1.89-6.77-1.8-1.1,0-2.52.09-3.62.08-2.41.42-2.41.42-3.93-2a6.94,6.94,0,0,0,3.86-2.71c.44-.87,1.87-1,2.85-1.29l9.23-3c.33-.1,1.09,0,1.21-.75s-.32-1-1.09-1.11a5.35,5.35,0,0,1-2.83-2c-1-.77-.64-2,.67-2.4a2.59,2.59,0,0,1,1.76-.21c1.53.23,2.84.9,4.26.8a5,5,0,0,1,3.94.91c1,.77,2.19,0,3.06.46,2,.45,3.28,1.12,4.93-.51.33-.11.77.11,1.1,0,1.41,1,2.51,1,3.4-.75.44-.87,1.87-1,2.53-1.18,1.75-.21,2.52-1.19,3.09-2.83-2.52-1-5.14-2.33-8.09-2.47A31.64,31.64,0,0,1-1,109.62c-1.31-.67-2.51-1-3.16-1.89C-6,104.33-8.8,106-11.31,106a3.83,3.83,0,0,1-1.76.2,1.47,1.47,0,0,1-1.74-.89c-.65-.88-.1-1.42.78-2.07a5.28,5.28,0,0,0,1.77-2.4,54.91,54.91,0,0,0-7.34-.16c-2.62-.24-5.14-.15-7.55-.83a2.11,2.11,0,0,1-2-2.64c2.74-.53,5.28-2.81,8.13-3A25.43,25.43,0,0,0-14.06,92c1.54-.87,1.77-1.3.68-2.41-.11-.33-.54-.55-1.09-1.1-.65-.88,0-2.19,1.34-2.62,1.09,0,2.08-.31,3,.13a15.26,15.26,0,0,0,5.92.27c.43.22.65-.22.76.11,2.4,1.77,4.93-.51,7.44.5.11.33,1-.32,1.32-.43a18.46,18.46,0,0,1,12.81,1.3,3.42,3.42,0,0,0,2.07.78c1-.32,2-.64,2.09-1.4.34-1.21-1.08-1.11-1.52-1.33-5.25-1.57-10.38-2.82-15.85-4C2.13,81.28.5,79.62-1.91,79c-.77-.12-.76-1.21-1-1.87A9.6,9.6,0,0,1-3.51,74c-1.65.53-2.75.52-4,1.28-.55.55-1.31.43-2.08.31-.66.22-1.2-.33-1.42-1s.12-.77.67-1.31c1.76-1.3,2.55-3.38,4.64-4.78,1.1-1.09.56-1.64-1-1.87-1.63-.56-3.28,0-5.14-.15s-3.49-1.78-5.69-.7c-.55.54-.87-.45-1.09-1.11,0-1.09,0-2.19,1.11-2.18,2.75-.53,4.95-2.7,7.91-2.57a2.5,2.5,0,0,0,1.76-1.3c-2.51-1-5.36-.8-8-1-1.09,0-1.86-.13-2.95-.14-1.2-.33-1.09-1.1-1.08-2.19-.32-1-.1-1.43.89-1.75a30.21,30.21,0,0,1,9.33-2.67c2.52-.09,4.72-1.17,7.34-.93.33-.1,1-.32.88-.65.45-.87-.32-1-.75-1.21-1.31-.67-2.51-1-2.72-2.76-.1-1.42-1.52-1.32-2.29-1.44-1.2-.34-1.74-.89-1.74-2C-9,40.45-8.3,40.24-7,39.81c3.62-1.18,7-3,10.66-4.19.11-.77-.22-.66-.65-.88-1.42-1-2.75,1.62-4.49-.36-.76-1.21-2.51-1-4.15-1.57a31.39,31.39,0,0,1-4-2.33c-1.31-.67-2.5-2.1-4.14-2.66-1.09,0-.65-.88-.43-1.32.45-.87.46-2,1.66-1.63a7.58,7.58,0,0,1,2.63.24c1.31.67,2.18,1.11,3.5-.41a5,5,0,0,1,4.83-.84c2.07.78,4.38,0,6.68.38a1.27,1.27,0,0,0,1.65-1.63C6.2,21,6,19.21,3.92,18.43.43,16.65.32,16.32,2.43,12.72.57,11.5-2.38,11.37-3.68,9.61c-1-.78-1.63-1.66-3.16-1.89-2.3-.34-3.6-2.11-5.23-3.76-.88-.45-.54-1.65.24-2.63A2.09,2.09,0,0,1-9.2.48C-3.85,2.38,1.65.23,7.67-.27,6.48-1.7,5.39-2.81,5-4.13S3.77-5.56,2.79-6.33C.61-7.44-2.68-7.47-3.64-10.43-6-10-6.58-12.76-8.88-13.1s-4-2.33-5.66-4a1.3,1.3,0,0,1-.31-2.08,2.3,2.3,0,0,1,2.09-1.41c2.19,0,3.6,1,5.35,1.9.11.33.32,1,.65.89,3.29,0,5.9,1.35,8.52,2.69,1,.77,2,.45,3,.13,1.86.12,1.87-1,1.88-2.07a4.45,4.45,0,0,0-1-1.87,4.59,4.59,0,0,0-2.05-3c-1-.77,1-2.51-.09-3.61s-.31-2.09,1-2.51c1.87-1,2-1.74,1.12-3.28l-.32-1a1.75,1.75,0,0,1,.78-2.07,3.25,3.25,0,0,1,2.52-.09c1.42,1,3.16,1.88,3.8,3.86a6.5,6.5,0,0,0,4.14,3.75c1.74.89,3.82,1.67,5.45,3.33a3,3,0,0,0,2.94,1.23c.89-.65,0-1.1-.09-1.43C24.07-24.9,23-26,23-27.1c.34-1.2-1.84-2.31.35-3.39-2.18-1.11-2.27-3.63-5-4.2-1.2-.34-3.17-.79-3.15-3L15-38.33c-.65-.88-2.53,1.19-2.3-.35.46-2-1.19-1.43-1.63-1.65a42.36,42.36,0,0,0-4.25-3c-2-.45-2.83-2-4.24-3-1-.77-1.2-1.43-.42-2.41s1.64-.54,2.19,0c1.74.88,3.83.57,4.8,2.44.54.55,1.75-.2,2.52-.09.43.22,1.09,0,1.64.56.1.33-1.11,1.09-.24,1.53.44.22,1.22-.76,1.54-.86,1.43-.1,1.31,1.76,3.06,1.55l.22-.43a33.91,33.91,0,0,1-2.24-8c-.09-2.52-1.38-5.38-2.46-7.58s-.3-4.27-1.27-6.14c-.32-1,.56-1.64,1.66-1.63a1.85,1.85,0,0,1,2.18,1.11,16.45,16.45,0,0,0,3.57,5.39c.55.55.43,1.32.65,2s0,1.09.53,1.65c1.19,1.43,2.06,3,1.17,4.71-.44.88-.12,1.86,1.42,1,.88-.65,1.64-.53,1.31.67,0,2.19,1.94,3.74,2,6.26a18.12,18.12,0,0,1,2.12-4.7c.44-.87.23-1.53,1.54-2s1.33-1.52,1.34-2.62a9.83,9.83,0,0,1,1.89-4.25c.22-.44.67-1.31,1.54-.87,1.2.34,2.08.79,2.07,1.88-.36,3.39-.49,6.35-1.72,9.3-.66,1.31.76,1.21.21,1.75a2.52,2.52,0,0,1-1.76,1.3C36-43,32.53-42.58,33-41.26c.21,1.76-1.55,3.06-2.22,4.36-.77,1-1.11,2.19-.46,3.07,1.41,2.09,2.38,4,3.79,6,.66-1.31.67-2.4,1.45-3.38,1.1-1.09,2-1.74,2.43-3.71.34-1.2,2.1-2.5,3.1-3.92a46.94,46.94,0,0,0,5.21-8.61,2.34,2.34,0,0,1,2.32-1.85,2.32,2.32,0,0,1,2.06,1.88,8.79,8.79,0,0,1,.63,4.17A10.82,10.82,0,0,0,51-37.29a16.27,16.27,0,0,1-.38,5.58c-.11.77-.89,1.75-.79,3.17.21,1.76.31,3.18-2.54,3.38-1.1,0-1.1,1.09-.56,1.64.76,1.21,2.62,1.33,2.16,3.3-.22.44.88.45,1.31.67.66-.22.66-.22.88-.65,0-2.19,1.78-3.49,3.22-4.69a6.91,6.91,0,0,1,2.2-2.17c3.63-2.27,3.63-2.27,6.79.71-.3-4.28,3.12-7.21,5.33-10.48.78-1,1.87.13,2.63.24,1.1,0,1.42,1,1,1.87-1.33,2.62-.8,5.36-1.7,8.2a4.33,4.33,0,0,0,.29,4.28,4.21,4.21,0,0,1-.8,5.36c.87.44,1.75-.21,2.74-.53a2.29,2.29,0,0,1,3,1.23c.65.88.53,1.64-.24,2.62-1.55,2-3,4.25-5.41,5.77-.88.65-1.44,1.19-1.12,2.18.66.88,1.21.34,2.2,0,3.4-.75,6.15-2.37,7.16-6a7,7,0,0,1,1.34-3.72,2.1,2.1,0,0,1,2.53-1.18,1.45,1.45,0,0,1,1.63,1.65c.73,4.5,1.46,9-.65,13.69-.89,1.74-.91,3.93-1.8,5.68-.44.87-.66,1.31-.12,1.86.87.44,1.42-.1,2-.64C86.72,3.18,89.81.35,90.94-4a3,3,0,0,1,2.43-2.61c1-.32,1.42-.1,1.85,1.22A.33.33,0,0,0,95-5c0,1.1-.57,2.74-.14,4.06C95.61.29,97.47.41,97.46,2.6c1.12-3.28,2.44-4.8,5-6,2-.64,3.3-2.16,4.74-3.35,1.65-1.63,3.3-2.17,5.17-3.14a3,3,0,0,1,3.5.68c.75,1.21-.13,1.86-.57,2.74-1.55,2-3.1,3.92-5,6-1.1,1.09-1.44,2.29-2.54,3.38.76,1.21,1.64.56,2.73.57a2.33,2.33,0,0,1,2.74.56c.75,1.21,0,2.19-.79,3.17-1.44,1.2-5.51,4.34-7.82,5.09-.66.22-.55.55-.88.65-.88.65-1,2.51-3.08,1.73,1.73,3.08,2.69,6,2,9.55a24.74,24.74,0,0,1,4.18-2.82c1-.32,2.2-1.08,2.18,1.11-.11.77.55.55.88.45,1.09,0,1.87-1,2.74-.53-.23,1.53-1.66,2.72-2.55,4.47,3.84-1.61,7.79-1.8,10.65-4.19,1.21-.76,2-.64,2.3.35a3.09,3.09,0,0,1-.79,3.17A23.65,23.65,0,0,0,120,31.68c-.58,3.83-3.23,6.88-5.22,9.71-1.22,1.86-.8,3.17,1.07,3.3a12.35,12.35,0,0,1,5.68,1.79c1.2.34,2.62,1.34,2.06,3a.85.85,0,0,0,.75,1.21c2.08.79,3.16,1.89,2.49,4.3-.45.87,2,1.54,3.5.68a34.39,34.39,0,0,0,3.09-2.83,40.87,40.87,0,0,1,6.16-3.45c1.31-.43,2.3-.75,3.72.24,1.31.67,1,1.87.74,3.4,2.85-.19,5.49-2.14,8.45-2,2.29.34,5.15-1,7.46-1.7,1.41,2.09,1.51,2.42-.58,3.83-2.64,2-5,4.89-8.26,6-1,.32-1.21.76-1,1.42a2.73,2.73,0,0,0,.1,1.42c-.34,2.3-.36,4.49-3.43,5.12-2,.65-3.74,1.95-4.08,4.24a3.61,3.61,0,0,1-2,2.84,9.2,9.2,0,0,0-2.55,4.47c2.62,1.33,4.5-.73,7-1.92-1.44,2.29-3.52,2.6-4.41,4.35-.12.76,2-.64.86,1.54-1,1.41-.56,1.64,1.86,1.22a1.18,1.18,0,0,1,.76.11c.21,1.75,2.07,1.88,2.83,3.09,1.08,1.1,1.41,1,2.84.9,1.09,0,2,.45,2.52-1.19.23-.44.89-.65,1.54-.86,1.1,0,2.52-.09,3.3-1.07.67-1.31,1,1.87,1.86.12a2.84,2.84,0,0,1,2.75-1.62,3.8,3.8,0,0,0,2.63-.86c1-.32,2.09-.31,3.08-.63s2.3-.75,2.51,1c.43,1.32,1.85,1.22,2.95,1.23,1.31-.43,2.84-.2,4.27-.3,1.09,0,1.86.13,1.85,1.22.22.66.64,2-1,2.51-2.42.42-4.19,2.82-6.93,3.35-1.65.53-3.3,2.16-5.5,3.24a2.1,2.1,0,0,0-.35,2.3c.22.66,1,.77,1.75.89a6.6,6.6,0,0,0,2.52-.09c4.06-1,7.89-.38,11.61-.13a3.53,3.53,0,0,1,1.86.12c1.2.34,2.73.57,2.61,2.43.1,1.42-1.55,2-2.54,2.28A67.12,67.12,0,0,1,172,105.46c-1.32.43-2,.64-2.21,2.17.1,1.43-1.33,2.62-3.09,2.83a4.91,4.91,0,0,0-2.19,0c-1,.32-2.2,1.08-1.55,2,1.74,2-.45,2-1.33,2.62.76.11,1.64.56,2.3.34a3.84,3.84,0,0,1,3.71,1.35c.65.88,2,1.54,1.29,2.85.11.33.22.66.55.55,2-.64,2,.46,2.39,1.78-.11.76.76,1.21,1.42,1,1.64-.53,3.94-.19,5.27-1.71s2.64-2,4.28-1.39c2.18,1.11,4.82.25,6.9-.06,1.42-.1,3.18-.3,4.6-.4,1.32-.43,2,.45,2.62,1.33,1.19,1.43.86,2.64-.46,3.07-4.72,1.16-8.47,4.2-13.08,5.7a56.07,56.07,0,0,0-7.25,3.45c-.33.11-.55.54-.67,1.31,1.1,0,1.87-1,2.64-.86,1.31-.43,2.52-1.18,3.06.46.43,1.32,1.75.89,2.4.68,4.17-.63,8.21.61,12.15,1.52a8.12,8.12,0,0,1,3.82,1.67c1,.77,3,.13,3.38,1.45,2.84.89,5.24,2.67,8.76,1.16,1-.32,1.87-1,2.95.13s-.12,1.86-.24,2.63c-.46,3.06-3.21,4.68-5.19,6.42a2.67,2.67,0,0,1-2.64.86l-.66.21c.43,1.32-.56,1.64-1.87,2.07a5.81,5.81,0,0,0-1.67,2.72c-.66,1.31-.89,1.75.75,2.31,1.53.23,3.07.46,4.93.58a3.49,3.49,0,0,1,2.07.78c.87,1.54.42,2.42-1.12,3.28l-1,.32a6.56,6.56,0,0,1-2.41.42c.1,1.43,1.41,2.09,1.73,3.08.43,1.32,2.17,2.21,3.93,2a8.12,8.12,0,0,1,2.85-.19c1.75-.21,3.39.35,3.37,2.54.1,1.43,1.2,1.43,2.51,1,3.4-.75,6.9-.06,10-.7,1.76-.2,3.06,1.56,4.93.59,1-.32,1.74,2,.63,3.07a6.66,6.66,0,0,1-2.42,1.52,9.44,9.44,0,0,0-4.07,2.05c-1.1,1.08-2.63.85-4,1.28-2,.64-2.3.75-2.1,2.5a2.21,2.21,0,0,1-.9,2.84c-1.76,1.3-3.52,2.61-4.2,5-.23,1.53-2.31,1.84-3.63,2.27-4,1.29-7.15,3.78-11.53,3.75-.76-.12-1.87,1-3,2.06a12.37,12.37,0,0,0,4.15,1.56c1.2.34,2,.45,2,1.55.64,2,2.29,1.44,3.17.79,2.31-1.84,5.39-2.48,8.24-3.77,2-.64,4.39-1.06,6.37-1.7,2.2-1.08,4.6-.41,6.58-1,1-.32,1.53.23,1.41,1,.32,1,.87,1.54-.34,2.29l-3.63,2.28c-1.54.86-2,1.73-.9,2.84,2.07,1.87,1.28,3.95.5,6,3.85-1.61,7.9-1.47,11.95-1.33,1.09,0,.76,1.21,1,1.87a1.27,1.27,0,0,1-.12,1.86c-2.42,1.52-4.52,2.92-6.61,4.33l-3.63,2.27A107.51,107.51,0,0,0,242,221.1c2.29.34,3.93.9,4.46,3.64.1,1.43,1,1.87,2.62,1.34a26.65,26.65,0,0,0,4.73-2.27,12.45,12.45,0,0,1,4.39-2.15c2.31-.75,3.51-.42,3.82,1.67.43,1.32,1,1.87,2,1.55,2.31-.75,3.17.79,3.71,2.43-2.87,2.39-5.73,4.78-8.49,7.5,1.53.23,3.18-.31,4.15,1.56.21.66.87.45,1.53.23,2.2-1.08,3.94-.19,5.69.7a14.2,14.2,0,0,0,4.37,1.13c3.06.46,3.17.79,3.15,4.08-3.51.41-6.81,1.48-10.09,1.45a69.26,69.26,0,0,0-9.31.48c-.77-.12-1.64-.56-2.41-.68a1.74,1.74,0,0,0-2.41.42,1.64,1.64,0,0,0-.45,2,8.14,8.14,0,0,0,3.15,3c1.85,1.22,2.84.9,4.39-1.06a3.18,3.18,0,0,1,2-1.74c.33-.1,1-.32.77.12,0,2.19,1.3,1.76,2.5,2.1,1.64.56,1.52,2.42,2.93,3.42a6.64,6.64,0,0,1,1.19,2.52c.43,1.32.86,2.64,3.15,3,1.43-.1,1.75.89-.34,2.29,3.4-.74,5.24,1.58,7.09,2.79.88.45.43,1.32.21,1.76-.34,1.2-1.44,2.29-1.78,3.49.77.12.77.12,1.1,0,1.09,0,2.08-.31,2.07.78.43,1.32.2,2.85-1.56,3.06-2.08.31-4.94,1.6-6.78-.71-.88.65,1.3,1.76-.45,2-.66.22-1.44,1.2-2,.65-1-.78-1.1,0-1.65.53-2,1.74-2.66,4.14-4.2,6.1-2.1,2.51-3.22,5.78-5.43,8-.22.43-.45.87-.34,1.2.54.55,1-.32,1.43-.1,1.09,0,1.54-.86,2.42-1.51s2.19-1.08,3.41-1.84,2.52-1.19,3.73-1.94c.88.44,1.09,1.1,1.63,1.65a2.78,2.78,0,0,0,3.95-.19,9.7,9.7,0,0,1,4.51-2.92c.88-.65,1.54-.86,2-1.74-.11-.33.55-.54.77-1,.77-1,2.29,1.44,2.74-.52.34-1.21,1.66-1.63,2.64-2a4,4,0,0,0,3.19-1.39,6,6,0,0,1,3.4-.75c1.53.23,2.08.79,1.85,2.32-.56,1.64.42,2.41,1.73,2a6,6,0,0,0,3.4-.74c2.31-.75,4.82.26,7.46-.6a2.64,2.64,0,0,1,2.83,2,1.46,1.46,0,0,1-.56,1.64c-3.3,2.17-6.28,4.23-10.23,5.51a42.59,42.59,0,0,0-8.68,3.55c-2.64,1.95-6,2.69-9.22,3a1.32,1.32,0,0,1-1.1,0c-.32.1-1,.32-.77,1-.22.43.54.55.87.44a69.64,69.64,0,0,0,9.21-.8c2.74-.53,4.16.46,3.05,2.65-.46,2,.09,2.52,1.84,2.31a1.28,1.28,0,0,0,1.1,0c2.73.57,3.81,2.77,1.6,4.94-.77,1-1.33,1.52-.79,3.17,1.76-1.3,3.19-2.49,5-1.28l.33-.1c4.61-1.5,8.75,1.16,13.46,1.08,1.53.24,2.85-.19,4.49.37,1.09,0,1.86.12,1.85,1.22a2.19,2.19,0,0,1-1,2.51,28.65,28.65,0,0,1-8.67,3.55c-2.75.52-5.06,2.37-8.23,1.58-.77-.12-1.21.75-1.43,1.19a2.21,2.21,0,0,0,.64,2l2.94,2.32c.11.33,1,.77.32,1-1.88,2.06.64,2,1.18,2.52,1,.78,1.31,1.77.2,2.85-1.88,2.07-4.19,3.91-5.85,6.64a2.44,2.44,0,0,1,2.39,2.87c-.24,1.53-1.88,2.06-3.09,2.82l-3.63,1.18c-.55.54-1.54.86-1.65,1.63-.56,1.64-.79,3.17-2.77,3.81-.66.21-.34,1.2-.45,2-.23,1.53.2,2.85-.69,4.59,2,.45,3.5-.41,4.82-.84,3-1,5.26-.61,7.78-.71,1.86.13,3.4.36,4.37,2.23a2.3,2.3,0,0,0,2.07.78c2.2-1.08,3,.13,3.49,1.78.32,1,.87,1.54,2.4,1.77a22,22,0,0,1,5.47,1.14c.87.44,1.74.89,1.73,2-.44.87,0,2.19-1.66,2.73-1.21.75-2.63.85-4.28,1.39-1.32.43-2.84-.9-4.16-.47a6.75,6.75,0,0,1-4.6.4c-.56,1.64.63,3.07,1.06,4.39.21.66.43,1.32-.12,1.86a1.81,1.81,0,0,1-1.54-.23,1.26,1.26,0,0,0-1.86-.12c-.44.87-.33,1.2.21,1.75,1.41,2.09,5.13,2.34,7.34.17a6.23,6.23,0,0,1,5.27-1.72c3,.14,5.59-.72,8.11-.81A5.11,5.11,0,0,1,335,374c.76,1.21.53,2.75,2.39,2.87.44.22.54.55.43,1.32a1.78,1.78,0,0,0-.23,1.53c-.79,3.17-.9,2.84,2.39,2.86a65.1,65.1,0,0,0,11.51-1.55c.33-.11,1.21-.76,1.2.34.21.66.87.44,1.1,0,.77-1,2.3-.75,3.4-.75a66.19,66.19,0,0,1,11.38.31c1.1,0,2.3.35,2.29,1.44.1,1.43-.45,2-1.77,2.4a21,21,0,0,1-6.15,2.36c-2,.64-2.86,1.29-2.65,3.05s-.24,2.62-2.54,2.28c-.33.1-1.09,0-1.31.42-3.53,2.61-7.9,1.48-11.62,1.23a1.94,1.94,0,0,0-1.87,1,8.45,8.45,0,0,0-.57,2.74c-1,2.51-1.89,3.16-4.62,2.59a19.48,19.48,0,0,0-4.38,0c-.44-.23-.44-.23-.77-.12-1.42.1-2.41.42-3,2.06-.44.87.32,1,1.2,1.43,1.3.67,2.61,1.34,3.61-.08s1.87-1,3.07-.63a2.17,2.17,0,0,1,1.08,2.19,14.54,14.54,0,0,1-.9,2.85c2.29,1.44,3.84-.52,5.27-1.72.55-.54,2-.64,1.88-2.06,0-1.1,1.76-1.3,2.42-1.52,1.21-.76,2.09-1.41,3-2.06a14.14,14.14,0,0,1,3.52-1.5c1.32-.43,1.64.56,2.29,1.44.87.44.43,1.32-.13,1.86l-.65.21a52.15,52.15,0,0,1-9.08,12.42c-.22.44-.11.76-.34,1.2,2.41.68,4.82.26,7.12.6.76.12,1.21-.75,1.76-1.3,2.43-2.61,5.62-4,8.8-5.41,1.65-.53,2.18,1.11,3.39,1.45a40.47,40.47,0,0,1-6.88,11.34,2.57,2.57,0,0,0,2.52-.09,53.49,53.49,0,0,1,14.27-4.27l3.62-1.18c2-.64,3.17.79,2.72,2.76-.22.44-.44.87,0,1.09.32,1,.87,1.54.75,2.31l-.35,2.3c.66.88,1.54.23,2.63.24.66-.22,2-.65,2.63.23a3.43,3.43,0,0,1-.13,3c-1.88,2.07-2.89,4.58-5.64,6.2a21,21,0,0,0-3.41,2.93c-1,1.42-1.22,1.85.52,2.74,2.51,1,3.38,2.55,2.37,5.06-.66,1.31,2.27,4.73,3.8,5a3.41,3.41,0,0,1,3.05,1.55c.87,1.54,2.84,2,3.72,1.35,1.76-1.31,3.95-1.29,5.7-1.49a34,34,0,0,1,5.81-.07c2.19,0,3.17.79,3.7,2.44.87,1.54-.23,2.62-1.34,3.71-2.42,1.52-4.4,3.25-6.82,4.77,2.17,2.21,5,2,7.75,2.58,1.1,0,1.52,1.32,3.17.79,2,1.55,4.7,2.11,7.21,3.12a2.7,2.7,0,0,1,1.18,2.53c-.34,1.2-1,1.41-2.42,1.51a47.62,47.62,0,0,1-13,.23,3.43,3.43,0,0,1-2.08-.78c-.54-.55-1.09,0-1.32.43-.55.54-.11.76.33,1,.1.33.21.66.54.56,1,1.87-.25,3.72-2.44,3.7a43.76,43.76,0,0,1-8.86-1.49c-4.91-1.68-9.16-4.67-14.42-5.15a9.9,9.9,0,0,1-4.48-1.45c-.76-.12-1.3-.67-2.41.42,2.93,3.41,5.76,6.5,11.35,5.78,2.08-.32,4.27-.3,5.13,2.33.21.66.43,1.32-.79,2.08-1.86,1-3.63,2.27-5.82,3.35a6.21,6.21,0,0,0-3.08,1.73c1.08,1.1,2.4.68,3.6,1,3.07.46,5.24,2.67,8.41,3.46.33-.11.76.12,1,.78,0,0-1.54.86.21.65,2.09-.31,3.28,1.12,4.92,1.68,1.2.34,1,1.87.52,2.75,0,1.09-.66,1.31-1.76,1.3l-4.27.29c-1.86-.12-4.05-.14-5.27,1.72-1,1.41-2.53,1.18-3.95,1.28-3.18.3-3.18.3-2.33,2.94.43,1.32.75,2.31-.68,3.5-1.1,1.09-2.09,1.41-3.51.41a8.05,8.05,0,0,0-2.18-1.11,3.27,3.27,0,0,0-3.74,1.94c.11.33,0,1.1-.33,1.2-1.45,2.29-1.23,3,1.29,2.86,1.86.12,2.83,2,4.69,2.12.77.11.54,1.64.42,2.41s-.44.87-1.43,1.19c-2.41.42-5,1.28-7.46,1.7-5.37.29-10,2.88-15.36,3.17-.77-.12-2.41.42-1.11,2.18.65.88-.45,2-1.34,2.62-1.86,1-3.73,1.94-5.93,3a20.27,20.27,0,0,0-3.53,2.6c1.31.67,2.29,1.44,3.6,2.11a1.68,1.68,0,0,1,1.08,2.2c-.67,1.31-1.11,2.18-2.87,2.39a14,14,0,0,1-3.49-.69c-1.21-.33-1.65.54-1.33,1.53l.64,2a2.7,2.7,0,0,1-2.32,2.94,21.4,21.4,0,0,1-2.52.09,8.08,8.08,0,0,0-6.57,0c-.66.22-1.64-.56-2.19,0,.1,1.42,1.63,1.65,1.62,2.75-.11.76-1,.32-1.32.42a2.87,2.87,0,0,0-3.3,2.17,9,9,0,0,1-1,2.51c-.34,1.2-1.33,1.52-2.75,1.62-2.41-.67-4.82-.25-7-.27a11.5,11.5,0,0,0-7.35,2,4.15,4.15,0,0,1-3.41.74c-2.29-.35-4.38,1.06-5.82,2.25-.77,1-.78,2.08-2.31,1.85s-3.29,0-4.48-1.46a5.69,5.69,0,0,1-1.19-1.43c-.53-2.75-2.71-3.86-4.34-5.51-1.11,1.08-.79,3.17-.36,3.39,2.29,1.44,1.18,3.62,2.48,5.38.21.66.86,1.54-.35,2.3-.88.65-1.65,1.63-2.85,1.29a4.11,4.11,0,0,1-2.18-1.11,5.19,5.19,0,0,0-2.52-1c-.65.21-.55.54-.33,1.2.35,11.17-23.8,4.09-31.15,5-2.62-.24,14.52,35.7,12.43,37.11-1.11,1.09-2.32,1.85-1.78,3.49s-.57,2.74-2.22,3.27a18.93,18.93,0,0,1-5.82,2.26c-12.36-16.74-16-23.56-25.68-36.45l-.33.11c-1.32,1.52-2.43,3.7-4.73,3.36-3-.13-6.13-.92-8.19-3.9-.86-1.54-1.5-3.51-2.7-5-.54-.55-.65-.88-1-.77-.66.21-.77,1-1,1.42l.53,1.64a2.09,2.09,0,0,1,.1,1.43c.11.33,0,1.09-.34,1.2-2.63.86-1.23,4-3.54,4.79s-3.64,3.37-5.84,4.45l-.33.1c-1,1.42-2.3.75-3.4.75a2.59,2.59,0,0,1-1.66,2.72,5.65,5.65,0,0,1-5.25-.48,1.08,1.08,0,0,0-.55-.55c-1.31-.67-1.95-2.64-3.27-2.21a10.44,10.44,0,0,0-4.73,3.36,57.61,57.61,0,0,0-3.65,4.46,4.24,4.24,0,0,1-3.08,1.73c-1.75.2-2.95-.13-3.16-1.89a4.37,4.37,0,0,0-1-1.87c-1.1,0-1.54.87-2.09,1.41a3.92,3.92,0,0,1-3.31,2.17c-.65.21-1.31.42-1.43,1.19.32,1,.09,2.52-1.33,2.62-1.65.53-3.3,1.07-4.82-.26-2.29-1.44-5.13-2.34-6.09-5.3-2,1.74-3,3.15-4.75,4.45-2.86,2.39-6.48,3.57-10.21,4.42-.66.21-1.43.09-2.09.31-3.17-.79-4-2.33-2-5.16A7.37,7.37,0,0,1,123.7,600c.88-.65.66-1.31,0-2.19s-2.07-.78-2.29-.34c-1.11,1.08-2.42,1.51-3.42,2.93a3.76,3.76,0,0,1-1.22,1.85c-.77,1-1.33,2.62-3.3,2.16-1.86-.12-3.5-.68-3.26-3.31C103,606.75,95,610.42,87.34,613.65c-1.87,1-3.07.63-4.26-.8-.55-.56,0-1.1.12-1.86,1.56-3.06,4.09-5.34,6.19-7.84,1-1.42,2.76-2.72,4.42-4.35.22-.44.88-.65,1.1-1.09.34-1.2.12-1.86-1-1.87-2,.65-3.73.85-5-.91-1.09-1.1-1-3-.73-4.5-2.19,0-2.43,1.52-3.31,2.17-1.1,1.09.41,3.51-2.1,3.6l-.33.1c-.15,5.15-1.82,9-4.25,11.58-.78,1-1.55,2-3.41,1.84-1.64-.56-2.62-1.34-2.83-3.09-1-3-2.06-3-4.37-1.13a16.65,16.65,0,0,0-4.53,5.11c-1.44,2.29-3.86,3.81-6.28,5.32a2.64,2.64,0,0,1-3.29,0c-1.41-1-.53-1.65-.19-2.85.89-1.75.8-4.27,3.76-5.23l.22-.44c-2.29-1.44.24-2.62.58-3.83-1.2-.33-2.41.42-3.4.75s-1.54.86-2.52.09c-1.85-1.22-2.07-1.88-.85-3.73a53.22,53.22,0,0,1,8.39-8.92,6.2,6.2,0,0,1,2.87-2.39,3.94,3.94,0,0,1,4.81.26c-.86-1.54-1.51-2.42.47-3.07a19.48,19.48,0,0,0,2.52-.09c1.09,0,1.53-.86,1.54-2-.32-1-1-.77-1.74-.89-2.85.2-5.6,1.82-8.34,2.35a4.62,4.62,0,0,0-2,1.74c-1.66,2.72-4.63,3.69-6.94,5.53a8.88,8.88,0,0,1-4.83,1.93,6.6,6.6,0,0,0-4.07,2.06,36.69,36.69,0,0,1-7.38,5.31c-2.75,1.62-4.93.51-4.91-2.78a4.52,4.52,0,0,0,.56-1.64,14.93,14.93,0,0,0-5.27,1.71c-1.87,1-3.84,1.62-5.8.07a4,4,0,0,0-3.72-.25c-1.32.43-2.42.42-3.4.74s-1.43.1-2.08-.78c-.21-.66,0-1.09.56-1.64l.45-.87c1.43-1.19,3-3.15,4.73-3.36,2-.64,2.32-2.94,4.3-3.58.66-.22,1.87-1,3.07-.64-.65-.88-4.12-5.94-4.55-6.16-1.3-1.77-.53-2.74,1-3.61.55-.54,1.1-1.09.89-1.74-.32-1-1.2-.34-1.86-.13a1.85,1.85,0,0,1-1.64-.56c-.43-1.32-1.64-.56-2.4-.67a6,6,0,0,1-3.94-.91c-1.31-.67-1.62-2.75-.63-3.07,3.08-1.73,3.54-4.79,6.29-6.42,1.21-.75,2.85-1.29,3.85-2.7a1.26,1.26,0,0,0-1.74-.89c-5.05,1.27-9.42.14-14.13-.88-1.86-.12-1.52-1.32-1.95-2.64,0-1.1.56-1.64,1.88-2.07a52.27,52.27,0,0,1,10.1-2.55c1.42-.1,3.07-.63,4.49-.73.44.22,1.1,0,.88-.65a.65.65,0,0,0-.32-1c-.54-.55-1-.77-1.52-1.33-.87-.44-2.41-.67-1.41-2.09.77-1,1-2.51,3-2.06,2.3.35,4.83-.84,7.22.94.58-3.83,3.43-4,6.17-4.56,1.43-.1,3.29,0,4.61-1.5-2.94-1.22-4.79-3.54-7.08-5-1.74-.89-1.4-3.19-3.47-4-.77-.11.9-2.84,2.1-2.5,1.64.56,2.3-.75,3.29-1.07a46.53,46.53,0,0,1,20.43-7.73c-1-.78-1.52-1.33-2.5-2.1-3.06-1.56-4.26-1.9-7,.82-2.43,2.61-5.28,3.9-8.58,5-1.54.87-3.18.31-3-1.22.13-1.86-.75-1.21-1.74-.89A47.6,47.6,0,0,0,25.36,526c-1.87,1-3.07.63-4.16-.47a1.68,1.68,0,0,1-.19-2.85c1.1-1.09,2.1-2.5,3.42-4,1.11-1.09,1.11-2.18-.75-2.3-1.42.09-1.64-.56-1.63-1.66s.23-1.53,1.55-2c1.21-.76,3-1,4.29-2.49-.11-.32-.54-.55-.65-.88a1.45,1.45,0,0,1-1.63-1.65,2.19,2.19,0,0,1,1.44-2.29,21.67,21.67,0,0,1,4.18-1.72c.88-.65,1.1-1.09.45-2s-1.1,0-1.32.43c-3,2.06-6.47,1.37-9.55,3.1-1.32.43-3-1.55-2.28-2.53a11.75,11.75,0,0,1,3.65-4.47c2.86-2.38,6.05-3.78,8.92-6.17a7.23,7.23,0,0,0,2.65-3,1.27,1.27,0,0,0,.12-1.86,2.08,2.08,0,0,0-2.3-.34c-.66.21-1.31.42-1.54.86-1.33,2.62-4.07,3.15-6,5.21-.77,1-2,.64-3.29,0s-1.19-1.44-.74-2.31c1.33-2.62,2.33-5.13,3.89-8.18-3.4.74-6.58,1-9.65,1.68a31.52,31.52,0,0,1-11.5.46C.49,484.19.83,483,.51,482c-.43-1.32.78-2.07,1.77-2.4a74.22,74.22,0,0,0,8.12-3c1.21-.76,2.64-.86,2.22-3.27-.43-1.32,1-2.51,3-3.15.77.11,1.43-.1,1.86.12,2.64-.86,2.64-.86,2.77-3.81-.22-.66.34-1.2.89-1.75.44-.87,1.32-1.52,1.77-2.39a1.54,1.54,0,0,0-.54-1.65,4.86,4.86,0,0,0-1.64-.56c-2.62-.24-4.69-2.12-7.42-2.68-1.53-.24-3.06-1.56-4.14-2.67s-.42-2.41-.09-3.61c.45-.87,1.43-.1,2.09-.31,3.28,0,6.12.92,9,.72l2.31-.75c.53,1.65,2,1.55,3.27,2.22,1.41,1,1.32-1.52,2.52-1.19-1.74-.89-3.93-.9-5.79-1Z"/><path class="cls-3" d="M-75.25-83.45v693.9h643.5V-83.45Zm519.76,447.3L249.65,476.35,54.79,363.85v-225L249.65,26.35l194.86,112.5Z"/><rect class="cls-1" x="489.5" y="-114.5" width="142" height="813"/><rect class="cls-1" x="-144" y="-153" width="150" height="813"/><rect class="cls-1" x="-73" y="-99" width="679" height="105"/><rect class="cls-1" x="-52" y="487" width="626" height="146"/></svg>