<svg id="Layer_1" data-name="Layer 1" xmlns="http://www.w3.org/2000/svg" viewBox="0 0 500 500"><defs><style>.cls-1{fill:none;stroke:#fff;stroke-miterlimit:10;stroke-width:30px;}.cls-2{fill:#fff;}</style></defs><title>Dark_Icon</title><polygon class="cls-1" points="244.5 21.5 49.64 134 49.64 359 244.5 471.5 439.35 359 439.35 134 244.5 21.5"/><path class="cls-2" d="M358.06,406.78c-3.16,1.39-6.31,2.78-8.74,5.35l9.42-5.44A1.88,1.88,0,0,0,358.06,406.78Z"/><path class="cls-2" d="M49.29,360.35l194.86,112.5,102.9-59.41c-2.17-.24-4.42.08-6.67-.55.22-.43.12-.76.34-1.2a51.84,51.84,0,0,0,9.07-12.42l.66-.21c.55-.54,1-1.42.13-1.86-.65-.88-1-1.87-2.29-1.44a14.14,14.14,0,0,0-3.52,1.5c-.88.65-1.76,1.3-3,2.06-.66.22-2.41.42-2.42,1.52.1,1.42-1.33,1.52-1.88,2.06-1.43,1.2-3,3.16-5.27,1.72a15.25,15.25,0,0,0,.9-2.85,2.19,2.19,0,0,0-1.08-2.19c-1.2-.34-2.08-.79-3.07.63s-2.31.75-3.62.08c-.87-.44-1.64-.56-1.19-1.43.56-1.64,1.55-2,3-2.06.33-.11.33-.11.77.12a19.48,19.48,0,0,1,4.38,0c2.73.57,3.61-.08,4.62-2.59a8.45,8.45,0,0,1,.57-2.74,1.94,1.94,0,0,1,1.86-1c3.73.25,8.1,1.38,11.62-1.23.23-.43,1-.32,1.32-.42,2.3.34,2.74-.53,2.54-2.28s.67-2.41,2.65-3.05a21,21,0,0,0,6.15-2.36c1.32-.43,1.87-1,1.77-2.4,0-1.09-1.19-1.43-2.29-1.44a66.27,66.27,0,0,0-11.39-.31c-1.09,0-2.62-.23-3.4.75-.22.43-.88.65-1.09,0,0-1.1-.88-.45-1.2-.34a65.08,65.08,0,0,1-11.52,1.55c-3.28,0-3.17.31-2.38-2.86a1.75,1.75,0,0,1,.23-1.53c.11-.77,0-1.1-.43-1.32-1.86-.12-1.63-1.66-2.39-2.87a5.13,5.13,0,0,0-4.91-2.77c-2.52.09-5.15.95-8.11.81a6.25,6.25,0,0,0-5.27,1.72c-2.2,2.17-5.93,1.92-7.33-.17-.55-.55-.65-.88-.21-1.75a1.26,1.26,0,0,1,1.86.12,1.79,1.79,0,0,0,1.53.23c.55-.54.34-1.2.13-1.86-.43-1.32-1.62-2.75-1.06-4.39a6.75,6.75,0,0,0,4.6-.4c1.32-.43,2.84.9,4.16.47,1.64-.54,3.07-.64,4.28-1.39,1.64-.54,1.22-1.86,1.66-2.73,0-1.09-.86-1.54-1.74-2a21.79,21.79,0,0,0-5.46-1.14c-1.53-.23-2.08-.78-2.4-1.77-.53-1.65-1.29-2.86-3.49-1.78a2.33,2.33,0,0,1-2.08-.78c-1-1.87-2.5-2.1-4.36-2.23-2.52.1-4.82-.25-7.78.71-1.32.43-2.86,1.29-4.83.84.89-1.74.47-3.06.7-4.59.11-.77-.21-1.76.45-2,2-.64,2.21-2.17,2.77-3.81.11-.77,1.1-1.09,1.65-1.63l3.62-1.18c1.22-.76,2.86-1.29,3.09-2.82a2.43,2.43,0,0,0-2.38-2.87c1.66-2.73,4-4.57,5.85-6.64a1.69,1.69,0,0,0-.2-2.85c-.54-.55-3.06-.46-1.18-2.52.66-.22-.22-.66-.32-1l-2.94-2.32a2.22,2.22,0,0,1-.65-2c.23-.44.67-1.31,1.44-1.19,3.17.79,5.48-1.06,8.22-1.58a28.7,28.7,0,0,0,8.68-3.55,2.2,2.2,0,0,0,1-2.51c0-1.1-.76-1.21-1.86-1.22-1.63-.56-2.95-.13-4.48-.37-4.71.08-8.85-2.58-13.47-1.08l-.33.1c-1.85-1.21-3.28,0-5,1.28-.54-1.65,0-2.19.79-3.17,2.2-2.17,1.13-4.37-1.61-4.94a1.26,1.26,0,0,1-1.09,0c-1.76.21-2.3-.35-1.85-2.31,1.11-2.19-.3-3.18-3-2.65a69.64,69.64,0,0,1-9.21.8c-.33.11-1.09,0-.87-.44-.22-.66.44-.88.77-1a1.32,1.32,0,0,0,1.1,0c3.18-.31,6.58-1.05,9.22-3a42.36,42.36,0,0,1,8.68-3.55c3.95-1.28,6.92-3.34,10.23-5.51a1.46,1.46,0,0,0,.56-1.64,2.64,2.64,0,0,0-2.84-2c-2.63.86-5.14-.15-7.45.6a6,6,0,0,1-3.4.74c-1.32.43-2.3-.34-1.74-2,.23-1.53-.31-2.09-1.84-2.32a6,6,0,0,0-3.4.75,4,4,0,0,1-3.19,1.39c-1,.33-2.3.75-2.64,2-.45,2-2-.46-2.74.52-.23.44-.88.65-.78,1-.44.88-1.1,1.09-2,1.74a9.7,9.7,0,0,0-4.51,2.92,2.78,2.78,0,0,1-3.95.19c-.54-.55-.76-1.21-1.63-1.65-1.21.75-2.53,1.18-3.74,1.94s-2.53,1.19-3.41,1.84-1.32,1.52-2.42,1.51c-.43-.22-.88.65-1.42.1a1.76,1.76,0,0,1,.34-1.2c2.2-2.18,3.32-5.45,5.42-8,1.55-2,2.23-4.36,4.21-6.1.55-.54.67-1.31,1.65-.53.54.55,1.32-.43,2-.65,1.76-.2-.42-1.31.46-2,1.84,2.31,4.7,1,6.78.71,1.76-.21,2-1.74,1.56-3.06,0-1.09-1-.77-2.08-.78-.33.11-.33.11-1.09,0,.34-1.2,1.44-2.29,1.78-3.49.22-.44.66-1.31-.21-1.76-1.85-1.21-3.7-3.53-7.1-2.79,2.1-1.4,1.77-2.39.35-2.29-2.3-.35-2.73-1.67-3.15-3a6.8,6.8,0,0,0-1.19-2.52c-1.42-1-1.29-2.86-2.93-3.42-1.2-.34-2.52.09-2.5-2.1.22-.44-.44-.22-.77-.12a3.16,3.16,0,0,0-2,1.74c-1.55,2-2.54,2.28-4.39,1.06a8.23,8.23,0,0,1-3.16-3,1.66,1.66,0,0,1,.46-2,1.74,1.74,0,0,1,2.41-.42c.77.12,1.64.56,2.4.68a69.49,69.49,0,0,1,9.32-.48c3.28,0,6.58-1,10.08-1.45,0-3.29-.08-3.62-3.14-4.08a14.2,14.2,0,0,1-4.37-1.13c-1.75-.89-3.49-1.78-5.69-.7-.66.22-1.32.43-1.53-.23-1-1.87-2.62-1.33-4.15-1.56,2.75-2.72,5.62-5.11,8.49-7.5-.54-1.64-1.4-3.18-3.71-2.43-1,.32-1.53-.23-2-1.55-.31-2.09-1.51-2.42-3.82-1.67a12.57,12.57,0,0,0-4.4,2.15,26.9,26.9,0,0,1-4.72,2.27c-1.65.53-2.52.09-2.62-1.34-.53-2.74-2.17-3.3-4.46-3.64A107.51,107.51,0,0,1,224.37,215l3.63-2.27c2.09-1.41,4.18-2.81,6.6-4.33a1.26,1.26,0,0,0,.13-1.86c-.22-.66.12-1.86-1-1.87-4.06-.14-8.11-.28-11.95,1.33.78-2.07,1.56-4.15-.5-6-1.09-1.11-.65-2,.89-2.84l3.64-2.28c1.21-.75.66-1.31.34-2.29.12-.77-.43-1.32-1.41-1-2,.64-4.39,0-6.58,1-2,.64-4.39,1.06-6.37,1.7-2.86,1.29-5.93,1.93-8.24,3.77-.88.65-2.53,1.19-3.17-.79,0-1.1-.76-1.21-2-1.55a12.3,12.3,0,0,1-4.15-1.56c1.1-1.09,2.21-2.18,3-2.06,4.38,0,7.58-2.46,11.53-3.75,1.32-.43,3.4-.74,3.63-2.27.68-2.4,2.44-3.71,4.2-5a2.21,2.21,0,0,0,.9-2.84c-.21-1.75.12-1.86,2.1-2.5,1.32-.43,2.85-.2,4-1.28a9.39,9.39,0,0,1,4.07-2.05,6.66,6.66,0,0,0,2.42-1.52c1.1-1.09.35-3.39-.63-3.07-1.87,1-3.17-.79-4.93-.59-3.07.64-6.57,0-10,.7-1.32.42-2.41.42-2.51-1,0-2.19-1.62-2.75-3.38-2.54a8.16,8.16,0,0,0-2.85.19c-1.75.21-3.5-.68-3.92-2-.32-1-1.63-1.65-1.73-3.08a6.61,6.61,0,0,0,2.41-.42l1-.32c1.54-.86,2-1.74,1.12-3.28a3.52,3.52,0,0,0-2.08-.78c-1.86-.12-3.39-.35-4.92-.58-1.64-.56-1.42-1-.75-2.31a5.82,5.82,0,0,1,1.66-2.72c1.32-.43,2.31-.75,1.88-2.07l.66-.21a2.68,2.68,0,0,0,2.64-.86c2-1.74,4.73-3.36,5.19-6.42.12-.77,1.33-1.53.24-2.63s-2-.45-3-.13c-3.51,1.51-5.91-.27-8.75-1.16-.43-1.32-2.4-.68-3.38-1.45a8.12,8.12,0,0,0-3.82-1.67c-3.94-.91-8-2.15-12.15-1.52-.66.21-2,.64-2.4-.68-.54-1.64-1.75-.89-3.07-.46-.76-.11-1.54.87-2.63.86.11-.77.34-1.2.67-1.31a55.45,55.45,0,0,1,7.25-3.45c4.61-1.5,8.36-4.54,13.08-5.7,1.31-.43,1.65-1.64.46-3.07-.65-.88-1.3-1.76-2.62-1.33-1.42.1-3.18.3-4.6.4-2.09.31-4.72,1.17-6.9.06-1.64-.56-3-.13-4.29,1.39s-3.62,1.18-5.26,1.71c-.66.22-1.54-.23-1.42-1-.43-1.32-.42-2.42-2.4-1.78-.33.11-.43-.22-.54-.55.67-1.31-.64-2-1.29-2.85a3.85,3.85,0,0,0-3.72-1.35c-.66.22-1.53-.23-2.29-.34.88-.65,3.07-.64,1.33-2.62-.65-.88.56-1.64,1.55-2a4.91,4.91,0,0,1,2.19,0c1.75-.21,3.19-1.4,3.09-2.83.23-1.53.89-1.74,2.2-2.17a67.22,67.22,0,0,0,11.2-3.64c1-.32,2.64-.86,2.54-2.28.12-1.86-1.41-2.09-2.61-2.43a3.54,3.54,0,0,0-1.86-.12c-3.72-.25-7.55-.83-11.61.13a6.61,6.61,0,0,1-2.52.09c-.77-.12-1.53-.23-1.75-.89a2.1,2.1,0,0,1,.35-2.3c2.2-1.08,3.85-2.71,5.5-3.24,2.74-.53,4.51-2.93,6.92-3.35,1.65-.53,1.22-1.85,1-2.51,0-1.09-.76-1.21-1.85-1.22-1.43.1-3-.13-4.28.3-1.09,0-2.52.09-2.94-1.23-.21-1.75-1.53-1.32-2.52-1s-2.08.31-3.07.63a3.81,3.81,0,0,1-2.63.86,2.83,2.83,0,0,0-2.75,1.62c-.89,1.75-1.2-1.43-1.86-.12-.78,1-2.2,1.08-3.3,1.07-.66.21-1.32.42-1.54.86-.56,1.64-1.43,1.2-2.53,1.19-1.42.1-1.75.2-2.84-.9a3,3,0,0,0-.92-.88L49.29,135.35Z"/></svg>